<?xml version="1.0" encoding="UTF-8" standalone="no"?>
<!-- Created with Inkscape (http://www.inkscape.org/) -->

<svg
   width="95.000008mm"
   height="35mm"
   viewBox="0 0 95.000008 35"
   version="1.1"
   id="svg5"
   xml:space="preserve"
   inkscape:export-filename="logo2.png"
   inkscape:export-xdpi="96"
   inkscape:export-ydpi="96"
   inkscape:version="1.2.2 (b0a8486, 2022-12-01)"
   sodipodi:docname="assets.svg"
   xmlns:inkscape="http://www.inkscape.org/namespaces/inkscape"
   xmlns:sodipodi="http://sodipodi.sourceforge.net/DTD/sodipodi-0.dtd"
   xmlns="http://www.w3.org/2000/svg"
   xmlns:svg="http://www.w3.org/2000/svg"><sodipodi:namedview
     id="namedview7"
     pagecolor="#ffffff"
     bordercolor="#000000"
     borderopacity="0.25"
     inkscape:showpageshadow="2"
     inkscape:pageopacity="0.0"
     inkscape:pagecheckerboard="0"
     inkscape:deskcolor="#d1d1d1"
     inkscape:document-units="mm"
     showgrid="false"
     inkscape:zoom="1.0789947"
     inkscape:cx="287.30447"
     inkscape:cy="119.55573"
     inkscape:window-width="1309"
     inkscape:window-height="720"
     inkscape:window-x="0"
     inkscape:window-y="25"
     inkscape:window-maximized="0"
     inkscape:current-layer="layer2"><inkscape:grid
       type="xygrid"
       id="grid428"
       originx="-2.33766e-06"
       originy="5.3590351e-06" /><inkscape:page
       x="0"
       y="0"
       width="95.000008"
       height="35"
       id="page1973" /><inkscape:page
       x="105.00001"
       y="0"
       width="15"
       height="15"
       id="page1975"
       inkscape:export-filename="logo.icon.png"
       inkscape:export-xdpi="96"
       inkscape:export-ydpi="96" /></sodipodi:namedview><defs
     id="defs2" /><g
     inkscape:label="Logo"
     inkscape:groupmode="layer"
     id="layer1"
     transform="matrix(1.00137,0,0,1.0039023,-47.249561,-216.23006)"><path
       style="fill:#000000;stroke-width:0.0846667"
       d="m 97.985956,240.42563 -0.508,-0.0793 -0.528747,-0.25986 -0.528747,-0.25986 -0.219224,-0.28742 c -0.120573,-0.15808 -0.273162,-0.46664 -0.339087,-0.68569 l -0.119862,-0.39827 v -1.72221 -1.72221 h 1.312333 1.312334 v 1.58982 1.58983 l 0.1318,0.18817 0.131802,0.18818 h 0.331913 0.331914 l 0.1377,-0.21016 0.137699,-0.21015 -0.02991,-1.03868 -0.02991,-1.03868 -0.241622,-0.41107 -0.241622,-0.41108 -1.464523,-1.50902 -1.464523,-1.50902 -0.185314,-0.4929 -0.185313,-0.49291 0.02879,-1.31233 0.02879,-1.31234 0.261124,-0.46566 0.261124,-0.46567 0.401197,-0.27289 c 0.470521,-0.32004 0.777791,-0.41838 1.714316,-0.5487 l 0.690429,-0.0961 0.691695,0.0978 0.691698,0.0978 0.39587,0.17505 c 0.48143,0.21288 0.81711,0.52033 1.05943,0.97031 l 0.18237,0.33866 0.0284,1.50284 0.0284,1.50283 h -1.31919 -1.319192 v -1.23323 -1.23323 l -0.08764,-0.16377 -0.08765,-0.16377 h -0.291403 -0.291402 l -0.141446,0.21587 -0.141445,0.21588 0.05248,0.79889 0.05248,0.7989 0.179976,0.35278 0.179975,0.35278 1.328377,1.36387 c 1.44098,1.47948 1.83317,1.98104 2.01094,2.57172 l 0.11543,0.38356 v 1.28351 1.28351 l -0.13497,0.45986 -0.13497,0.45987 -0.4499,0.43869 -0.4499,0.43869 -0.5677,0.17535 -0.56771,0.17534 -0.815923,0.0375 -0.815926,0.0375 z m 21.919114,0.004 c -0.23809,-0.0349 -0.63622,-0.13098 -0.88474,-0.21352 l -0.45185,-0.15008 -0.40781,-0.38146 -0.40781,-0.38146 -0.12889,-0.44336 -0.12889,-0.44336 0.0244,-4.89893 0.0244,-4.89893 0.26112,-0.46566 0.26113,-0.46567 0.4012,-0.27289 c 0.47052,-0.32003 0.77779,-0.41838 1.71431,-0.5487 l 0.69043,-0.0961 0.69169,0.0978 0.6917,0.0978 0.39588,0.17505 c 0.48121,0.21279 0.81687,0.52011 1.05978,0.97031 l 0.18272,0.33867 0.0278,1.5875 0.0278,1.5875 h -1.31893 -1.31893 v -1.38007 -1.38007 l -0.1016,-0.1016 -0.1016,-0.1016 h -0.27642 -0.27643 l -0.0876,0.16377 -0.0877,0.16377 v 4.6678 4.66779 l 0.0877,0.16377 0.0876,0.16377 h 0.27643 0.27642 l 0.1016,-0.1016 0.1016,-0.1016 v -1.71873 -1.71874 h 1.31233 1.31233 l -5e-4,1.79917 -5.1e-4,1.79917 -0.0847,0.30507 -0.0847,0.30508 -0.30108,0.31002 c -0.74437,0.76645 -2.11225,1.11239 -3.55971,0.90026 z m -30.428115,-6.81578 v -6.731 h 2.836334 2.836333 v 0.84666 0.84667 h -1.354667 -1.354666 v 1.82033 1.82034 h 1.227666 1.227667 v 0.80433 0.80433 h -1.227667 -1.227666 v 2.413 2.413 h 1.397 1.397 v 0.84667 0.84667 h -2.878667 -2.878667 z m 13.631335,0 v -6.731 h 2.83633 2.83633 v 0.84666 0.84667 h -1.35467 -1.35466 v 1.82033 1.82034 h 1.22766 1.22767 v 0.80433 0.80433 h -1.22767 -1.22766 v 2.413 2.413 h 1.397 1.397 v 0.84667 0.84667 h -2.87867 -2.87866 z m 6.26533,-0.002 v -6.73279 l 1.66733,0.023 1.66733,0.023 0.80917,2.93639 c 0.44504,1.61501 0.83774,2.96439 0.87267,2.99861 l 0.0635,0.0622 v -3.01978 -3.01978 h 1.18533 1.18533 v 6.731 6.731 h -1.47596 -1.47596 l -0.0458,-0.14816 c -0.0252,-0.0815 -0.46484,-1.6489 -0.97705,-3.48313 -0.5122,-1.83422 -0.95138,-3.35504 -0.97594,-3.37961 -0.0246,-0.0246 -0.0447,1.54284 -0.0447,3.48312 v 3.52778 h -1.22767 -1.22766 v -6.73279 z m 15.15533,0.002 v -6.731 h 1.48167 1.48166 v 6.731 6.731 h -1.48166 -1.48167 z m 3.41914,6.49816 c 0.0253,-0.12805 0.50556,-3.05223 1.06732,-6.49816 0.56177,-3.44594 1.04246,-6.37011 1.0682,-6.49817 l 0.0468,-0.23283 h 1.84368 1.84367 l 1.07309,6.5405 c 0.5902,3.59727 1.09175,6.62622 1.11455,6.731 l 0.0414,0.1905 h -1.43422 -1.43422 l -0.047,-0.23284 c -0.0259,-0.12805 -0.12554,-0.82338 -0.22147,-1.54516 -0.0959,-0.72179 -0.19633,-1.43616 -0.2231,-1.5875 l -0.0487,-0.27517 h -0.66407 -0.66408 l -0.047,0.27517 c -0.042,0.24543 -0.46863,3.28971 -0.46863,3.34371 0,0.012 -0.65072,0.0218 -1.44606,0.0218 h -1.44606 z m 4.45214,-5.37633 c -0.009,-0.33975 -0.39637,-3.70815 -0.43071,-3.74249 -0.0228,-0.0228 -0.10901,0.67183 -0.1916,1.54361 -0.0826,0.87177 -0.17142,1.74697 -0.1974,1.94488 l -0.0473,0.35983 h 0.43484 0.43484 l -0.003,-0.10583 z m 4.15139,-1.12183 v -6.731 h 1.48166 1.48167 v 5.88433 5.88433 h 1.27 1.27 v 0.84667 0.84667 h -2.75167 -2.75166 z"
       id="path1902"
       inkscape:label="text"
       sodipodi:insensitive="true" /><g
       id="g1851"
       inkscape:label="logo"
       sodipodi:insensitive="true"><path
         style="fill:#ecd860;fill-opacity:1;stroke-width:0.264583"
         d="m 72.83088,215.38955 -25.645962,24.55076 25.645962,0.0913 z"
         id="path691-3" /><path
         style="fill:#000000;fill-opacity:0.722944;stroke-width:0.264583"
         d="m 78.352519,220.5005 -25.645962,24.55076 25.645962,0.0913 z"
         id="path691-7" /><path
         style="fill:#ecd860;fill-opacity:0.909091;stroke-width:0.264583"
         d="m 83.600358,225.61144 -25.645962,24.55076 25.645962,0.0913 z"
         id="path691" /></g></g><g
     inkscape:groupmode="layer"
     id="layer2"
     inkscape:label="Fabicon"><g
       id="g1983"
       inkscape:label="logo"
       transform="matrix(0.41191319,0,0,0.41295486,85.56391,-88.416994)"><path
         style="fill:#ecd860;fill-opacity:1;stroke-width:0.264583"
         d="m 72.83088,215.38955 -25.645962,24.55076 25.645962,0.0913 z"
         id="path1977" /><path
         style="fill:#000000;fill-opacity:0.722944;stroke-width:0.264583"
         d="m 78.352519,220.5005 -25.645962,24.55076 25.645962,0.0913 z"
         id="path1979" /><path
         style="fill:#ecd860;fill-opacity:0.909091;stroke-width:0.264583"
         d="m 83.600358,225.61144 -25.645962,24.55076 25.645962,0.0913 z"
         id="path1981" /></g></g></svg>
